<?xml version="1.0" encoding="UTF-8"?>
<svg version="1.1" xmlns="http://www.w3.org/2000/svg" width="225" height="225">
<path d="M0 0 C0.76900786 -0.00523668 1.53801572 -0.01047336 2.33032686 -0.01586872 C4.90340165 -0.03085281 7.4762773 -0.03157353 10.0493927 -0.03224182 C11.89595372 -0.0398645 13.74251158 -0.04829218 15.58906555 -0.0574646 C20.60374992 -0.07940868 25.61837331 -0.08820866 30.63310027 -0.09329104 C33.76815688 -0.09693541 36.90319754 -0.10317597 40.03824806 -0.11029243 C50.98158596 -0.13478883 61.92487645 -0.14783877 72.86824036 -0.15138245 C83.05829686 -0.1550155 93.24805175 -0.18489398 103.43801612 -0.22678703 C112.19404987 -0.26151889 120.94998383 -0.27693141 129.70608598 -0.27762848 C134.93229817 -0.27842045 140.15820326 -0.28712218 145.3843441 -0.31562614 C150.30352522 -0.34185553 155.22214575 -0.34398474 160.14136505 -0.3279705 C161.94163297 -0.32615976 163.74193348 -0.33281277 165.54213142 -0.34878922 C183.86183806 -0.50139272 183.86183806 -0.50139272 191.29084778 5.27415466 C197.20244291 11.58025522 199.59432313 17.31483816 199.56500244 25.98330688 C199.57023912 26.75231475 199.5754758 27.52132261 199.58087116 28.31363374 C199.59585525 30.88670853 199.59657597 33.45958418 199.59724426 36.03269958 C199.60486694 37.87926061 199.61329463 39.72581846 199.62246704 41.57237244 C199.64441112 46.58705681 199.6532111 51.60168019 199.65829349 56.61640716 C199.66193786 59.75146376 199.66817841 62.88650442 199.67529488 66.02155495 C199.69979127 76.96489284 199.71284121 87.90818334 199.71638489 98.85154724 C199.72001794 109.04160374 199.74989642 119.23135864 199.79178947 129.421323 C199.82652133 138.17735675 199.84193385 146.93329071 199.84263092 155.68939286 C199.84342289 160.91560505 199.85212462 166.14151015 199.88062859 171.36765099 C199.90685798 176.28683211 199.90898718 181.20545263 199.89297295 186.12467194 C199.8911622 187.92493986 199.89781522 189.72524037 199.91379166 191.52543831 C200.06639516 209.84514494 200.06639516 209.84514494 194.29084778 217.27415466 C187.98474722 223.1857498 182.25016428 225.57763001 173.58169556 225.54830933 C172.42818376 225.55616434 172.42818376 225.55616434 171.2513687 225.56417805 C168.67829391 225.57916213 166.10541826 225.57988285 163.53230286 225.58055115 C161.68574183 225.58817382 159.83918398 225.59660151 157.99263 225.60577393 C152.97794563 225.62771801 147.96332225 225.63651798 142.94859529 225.64160037 C139.81353868 225.64524474 136.67849802 225.6514853 133.54344749 225.65860176 C122.6001096 225.68309816 111.65681911 225.69614809 100.7134552 225.69969177 C90.5233987 225.70332483 80.3336438 225.7332033 70.14367944 225.77509636 C61.38764569 225.80982821 52.63171173 225.82524073 43.87560958 225.82593781 C38.64939739 225.82672978 33.42349229 225.8354315 28.19735146 225.86393547 C23.27817033 225.89016486 18.35954981 225.89229407 13.44033051 225.87627983 C11.64006258 225.87446909 9.83976207 225.8811221 8.03956413 225.89709854 C-10.2801425 226.04970205 -10.2801425 226.04970205 -17.70915222 220.27415466 C-23.62074736 213.9680541 -26.01262757 208.23347117 -25.98330688 199.56500244 C-25.98854356 198.79599458 -25.99378024 198.02698672 -25.99917561 197.23467559 C-26.01415969 194.66160079 -26.01488041 192.08872515 -26.01554871 189.51560974 C-26.02317138 187.66904872 -26.03159907 185.82249087 -26.04077148 183.97593689 C-26.06271557 178.96125252 -26.07151554 173.94662913 -26.07659793 168.93190217 C-26.0802423 165.79684556 -26.08648286 162.6618049 -26.09359932 159.52675438 C-26.11809571 148.58341649 -26.13114565 137.64012599 -26.13468933 126.69676208 C-26.13832238 116.50670558 -26.16820086 106.31695069 -26.21009392 96.12698632 C-26.24482577 87.37095257 -26.26023829 78.61501861 -26.26093537 69.85891646 C-26.26172734 64.63270427 -26.27042906 59.40679918 -26.29893303 54.18065834 C-26.32516242 49.26147722 -26.32729162 44.34285669 -26.31127739 39.42363739 C-26.30946665 37.62336947 -26.31611966 35.82306896 -26.3320961 34.02287102 C-26.48469961 15.70316438 -26.48469961 15.70316438 -20.70915222 8.27415466 C-14.40305166 2.36255953 -8.66846873 -0.02932069 0 0 Z M9.29084778 40.27415466 C5.63238708 45.57261499 5.36155653 51.0434781 6.29084778 57.27415466 C8.48864568 63.05680513 12.63116111 67.71852095 18.29084778 70.27415466 C23.84533537 71.73538424 29.09249479 71.81624489 34.40022278 69.49681091 C38.91402195 66.5777631 42.59297042 62.36778674 44.29084778 57.27415466 C45.17520688 49.81867161 44.81305701 44.16489599 40.11897278 38.12181091 C35.72071822 33.67656645 31.37745144 32.0791497 25.16584778 31.83665466 C18.14026198 32.15942277 13.84135573 34.9857265 9.29084778 40.27415466 Z M99.29084778 96.27415466 C98.03057822 98.42485141 98.03057822 98.42485141 97.29084778 100.27415466 C96.63084778 100.27415466 95.97084778 100.27415466 95.29084778 100.27415466 C95.29084778 95.65415466 95.29084778 91.03415466 95.29084778 86.27415466 C85.06084778 86.27415466 74.83084778 86.27415466 64.29084778 86.27415466 C64.29084778 121.58415466 64.29084778 156.89415466 64.29084778 193.27415466 C74.52084778 193.27415466 84.75084778 193.27415466 95.29084778 193.27415466 C95.32823059 188.98673279 95.3656134 184.69931091 95.40412903 180.28196716 C95.44230049 176.83903576 95.4833727 173.39616581 95.52639008 169.95329285 C95.57084329 166.33240417 95.61031959 162.71162565 95.63728333 159.09056091 C95.66350856 155.59549003 95.70404201 152.10083833 95.75403404 148.60602951 C95.77856147 146.63996174 95.7886975 144.67373115 95.79849243 142.70753479 C95.91742072 135.37440036 96.7698555 129.16097254 99.29084778 122.27415466 C99.57959778 121.28415466 99.86834778 120.29415466 100.16584778 119.27415466 C101.72927209 116.49473367 103.28669466 116.182387 106.29084778 115.27415466 C107.03334778 114.90290466 107.77584778 114.53165466 108.54084778 114.14915466 C113.92990184 112.43445564 118.74277244 112.79196726 124.10334778 114.46165466 C130.0425037 117.83882176 131.82287902 121.93966104 133.65110779 128.25212097 C134.87924083 134.05363326 134.77362404 139.90434236 134.80256653 145.81321716 C134.81944929 147.18899601 134.83760425 148.56475977 134.85696411 149.94050598 C134.90408082 153.52750429 134.93413605 157.11444143 134.96040344 160.7016449 C134.9904047 164.37567644 135.03671018 168.049502 135.0818634 171.72337341 C135.16897427 178.90698088 135.22924591 186.09010268 135.29084778 193.27415466 C145.85084778 193.27415466 156.41084778 193.27415466 167.29084778 193.27415466 C167.38163193 183.32875099 167.45484052 173.3836277 167.49809647 163.4379015 C167.51886918 158.8184639 167.5469954 154.1993273 167.59260559 149.58006287 C167.63643509 145.11259743 167.66006221 140.6454194 167.67035675 136.17775536 C167.67768217 134.48310008 167.69198471 132.78845848 167.71376801 131.09392738 C167.89122041 116.70237834 166.50025528 103.3897226 156.29084778 92.27415466 C153.46978183 89.83988935 150.59563166 87.98586324 147.29084778 86.27415466 C146.65018372 85.93513123 146.00951965 85.59610779 145.34944153 85.24681091 C129.17157858 78.37675953 110.6191405 83.68223634 99.29084778 96.27415466 Z M9.29084778 86.27415466 C9.29084778 121.58415466 9.29084778 156.89415466 9.29084778 193.27415466 C20.18084778 193.27415466 31.07084778 193.27415466 42.29084778 193.27415466 C42.29084778 157.96415466 42.29084778 122.65415466 42.29084778 86.27415466 C31.40084778 86.27415466 20.51084778 86.27415466 9.29084778 86.27415466 Z " fill="#017DBA" transform="translate(25.709152221679688,-0.2741546630859375)"/>
<path d="M0 0 C0.33 0 0.66 0 1 0 C1 34.98 1 69.96 1 106 C11.23 106 21.46 106 32 106 C31.96519531 101.71257812 31.93039063 97.42515625 31.89453125 93.0078125 C31.87520538 89.56492371 31.85894868 86.12205048 31.84474945 82.67913818 C31.82898165 79.05811474 31.80795078 75.43730587 31.77368164 71.81640625 C31.74081655 68.32154116 31.72309058 64.82688268 31.71536827 61.33187485 C31.70721911 59.36564055 31.68384418 57.39948806 31.66011047 55.43338013 C31.65836453 46.02912257 32.15351726 37.08256835 39 30 C39 31.32 39 32.64 39 34 C38.34 34 37.68 34 37 34 C37.495 37.465 37.495 37.465 38 41 C37.01 40.67 36.02 40.34 35 40 C35 62.11 35 84.22 35 107 C23.45 107 11.9 107 0 107 C0 71.69 0 36.38 0 0 Z " fill="#1E78A5" transform="translate(89,87)"/>
<path d="M0 0 C0.33 0 0.66 0 1 0 C1.02712351 2.39591038 1.0468982 4.79150957 1.0625 7.1875 C1.07087891 7.86103516 1.07925781 8.53457031 1.08789062 9.22851562 C1.10609838 12.96110473 0.88087025 16.37288721 0 20 C-0.185625 20.928125 -0.37125 21.85625 -0.5625 22.8125 C-0.706875 23.534375 -0.85125 24.25625 -1 25 C-1.886875 24.9175 -2.77375 24.835 -3.6875 24.75 C-7.72282095 25.05455252 -9.00301738 26.40801503 -12 29 C-12.99 29 -13.98 29 -15 29 C-15 28.34 -15 27.68 -15 27 C-17.31 27 -19.62 27 -22 27 C-22 26.67 -22 26.34 -22 26 C-21.20335937 25.84144531 -20.40671875 25.68289062 -19.5859375 25.51953125 C-11.60835469 23.76291022 -7.00596213 22.24980853 -2.1875 15.4375 C-0.44132731 10.38278959 -0.24944371 5.31573137 0 0 Z " fill="#137BAC" transform="translate(70,45)"/>
<path d="M0 0 C3.62008276 3.12643511 4.87303939 6.35992698 5.24050903 11.10688782 C5.23606781 12.26826767 5.23162659 13.42964752 5.22705078 14.6262207 C5.22734283 15.27068649 5.22763489 15.91515228 5.22793579 16.57914734 C5.22655005 18.69483221 5.21102507 20.81015842 5.1953125 22.92578125 C5.19157967 24.39836942 5.18873397 25.87096009 5.18673706 27.34355164 C5.17912183 31.20857672 5.15949163 35.07345013 5.1373291 38.93841553 C5.11682508 42.88665719 5.10772562 46.8349235 5.09765625 50.78320312 C5.0762436 58.52220437 5.04213333 66.26108088 5 74 C4.67 74 4.34 74 4 74 C3.99453156 72.78850533 3.99453156 72.78850533 3.98895264 71.55253601 C3.95110247 63.94495274 3.89428466 56.33786079 3.81609726 48.73059368 C3.77656967 44.81948341 3.74440749 40.90860004 3.72900391 36.99731445 C3.71387153 33.22339674 3.67948852 29.45010262 3.63169098 25.67646217 C3.61684155 24.23600494 3.60895694 22.79545868 3.60811615 21.35492516 C3.60575583 19.33896915 3.57644695 17.32309896 3.54589844 15.30737305 C3.53701599 14.15931686 3.52813354 13.01126068 3.51898193 11.82841492 C3.2671386 8.87097509 3.2671386 8.87097509 0.96588135 7.10578918 C0.3171405 6.74087875 -0.33160034 6.37596832 -1 6 C-0.835 5.38125 -0.67 4.7625 -0.5 4.125 C0.07634644 2.03936614 0.07634644 2.03936614 0 0 Z " fill="#0E7AAD" transform="translate(155,118)"/>
<path d="M0 0 C0.66 0 1.32 0 2 0 C2.33 1.98 2.66 3.96 3 6 C3.66 5.67 4.32 5.34 5 5 C5 4.01 5 3.02 5 2 C7.97 2.495 7.97 2.495 11 3 C10.60167969 3.45890625 10.20335937 3.9178125 9.79296875 4.390625 C6.39984291 8.31674827 6.39984291 8.31674827 3.25 12.4375 C2.8375 12.953125 2.425 13.46875 2 14 C1.34 14 0.68 14 0 14 C0 9.38 0 4.76 0 0 Z " fill="#2678A7" transform="translate(121,86)"/>
<path d="M0 0 C2.97 0 5.94 0 9 0 C9 0.66 9 1.32 9 2 C9.886875 2.226875 10.77375 2.45375 11.6875 2.6875 C17.66939945 5.05768657 20.69882035 9.74256574 24 15 C23.67 15.66 23.34 16.32 23 17 C22.360625 15.96875 21.72125 14.9375 21.0625 13.875 C15.89064741 6.67811217 8.35978944 3.2529929 0 1 C0 0.67 0 0.34 0 0 Z " fill="#1B79A3" transform="translate(164,83)"/>
<path d="M0 0 C5.95945778 -0.31365567 9.72217292 0.14997338 15 3 C15.99 4.485 15.99 4.485 17 6 C16.45859375 5.67257813 15.9171875 5.34515625 15.359375 5.0078125 C12.49280933 3.78335233 10.3547013 3.80107854 7.25 3.875 C6.26515625 3.89304687 5.2803125 3.91109375 4.265625 3.9296875 C3.51796875 3.95289062 2.7703125 3.97609375 2 4 C1.34 2.68 0.68 1.36 0 0 Z " fill="#147AAA" transform="translate(138,112)"/>
<path d="M0 0 C0.33 1.32 0.66 2.64 1 4 C0.34 4 -0.32 4 -1 4 C-0.67 6.31 -0.34 8.62 0 11 C-0.99 10.67 -1.98 10.34 -3 10 C-3.33 12.64 -3.66 15.28 -4 18 C-4.33 18 -4.66 18 -5 18 C-5.67090715 10.75420281 -3.58125682 6.24161903 0 0 Z " fill="#177AAB" transform="translate(127,117)"/>
<path d="M0 0 C0.66 0.33 1.32 0.66 2 1 C2 1.66 2 2.32 2 3 C1.34 3 0.68 3 0 3 C0.04125 4.093125 0.0825 5.18625 0.125 6.3125 C0 10 0 10 -2 13 C-2.66 12.67 -3.32 12.34 -4 12 C-3.5317879 7.22423661 -2.75668002 3.95523655 0 0 Z " fill="#1279AA" transform="translate(5,8)"/>
<path d="M0 0 C2.97 0.495 2.97 0.495 6 1 C2.484375 5.6875 2.484375 5.6875 1 7 C-0.32 7 -1.64 7 -3 7 C-2.67 6.01 -2.34 5.02 -2 4 C-1.34 3.67 -0.68 3.34 0 3 C0 2.01 0 1.02 0 0 Z " fill="#117BAB" transform="translate(126,88)"/>
<path d="M0 0 C4.51478398 0.53115106 7.34666857 2.36620292 11 5 C7.57056481 6.18771723 5.62215325 5.80226223 2.25 4.5625 C1.45078125 4.27503906 0.6515625 3.98757812 -0.171875 3.69140625 C-0.77515625 3.46324219 -1.3784375 3.23507812 -2 3 C-1.34 2.67 -0.68 2.34 0 2 C0 1.34 0 0.68 0 0 Z " fill="#1779A9" transform="translate(207,1)"/>
<path d="M0 0 C-0.57492188 0.28488281 -1.14984375 0.56976563 -1.7421875 0.86328125 C-3.19344762 1.59393297 -4.637031 2.34015051 -6.0703125 3.10546875 C-6.74835938 3.46253906 -7.42640625 3.81960937 -8.125 4.1875 C-8.80820313 4.55230469 -9.49140625 4.91710937 -10.1953125 5.29296875 C-11.08863281 5.64294922 -11.08863281 5.64294922 -12 6 C-12.66 5.67 -13.32 5.34 -14 5 C-13.3125 3.0625 -13.3125 3.0625 -12 1 C-8.09331927 -0.33943339 -4.09404971 -0.08027548 0 0 Z " fill="#1C7AA9" transform="translate(146,83)"/>
<path d="M0 0 C0.268125 0.639375 0.53625 1.27875 0.8125 1.9375 C1.88667752 4.33131686 1.88667752 4.33131686 5 5 C5 6.32 5 7.64 5 9 C5.66 9 6.32 9 7 9 C7.66 10.32 8.32 11.64 9 13 C5.6227555 11.60724746 4.12929695 10.17726069 2.25 7.0625 C1.82203125 6.37285156 1.3940625 5.68320313 0.953125 4.97265625 C-0 3 -0 3 0 0 Z " fill="#1F7AA3" transform="translate(1,207)"/>
<path d="M0 0 C1.27230469 0.01804687 2.54460938 0.03609375 3.85546875 0.0546875 C5.31919922 0.08949219 5.31919922 0.08949219 6.8125 0.125 C6.8125 0.455 6.8125 0.785 6.8125 1.125 C5.92046875 1.24617188 5.0284375 1.36734375 4.109375 1.4921875 C2.93890625 1.65976562 1.7684375 1.82734375 0.5625 2 C-0.59765625 2.16242187 -1.7578125 2.32484375 -2.953125 2.4921875 C-5.76943313 3.04320431 -7.73967557 3.68296482 -10.1875 5.125 C-10.1875 4.135 -10.1875 3.145 -10.1875 2.125 C-6.4507157 -0.36618953 -4.44298181 -0.0815226 0 0 Z " fill="#1C7DA8" transform="translate(49.1875,30.875)"/>
<path d="M0 0 C2.79872437 2.52788007 4.45773019 4.20411134 5 8 C3.35 7.67 1.7 7.34 0 7 C0 4.69 0 2.38 0 0 Z " fill="#157AA9" transform="translate(218,7)"/>
<path d="M0 0 C0.66 0.33 1.32 0.66 2 1 C1.67 3.64 1.34 6.28 1 9 C-3 4.25 -3 4.25 -3 2 C-2.01 1.34 -1.02 0.68 0 0 Z " fill="#117BAD" transform="translate(69,36)"/>
<path d="M0 0 C3.71888239 0.50712033 6.73454239 1.11608215 10 3 C9.67 3.99 9.34 4.98 9 6 C6 4 3 2 0 0 Z " fill="#1D77A2" transform="translate(56,32)"/>
<path d="M0 0 C0.33 0.99 0.66 1.98 1 3 C-3.455 3.495 -3.455 3.495 -8 4 C-4 -0 -4 -0 0 0 Z " fill="#1B78A7" transform="translate(18,1)"/>
</svg>
